<?xml version="1.0" standalone="no"?>
<!DOCTYPE svg PUBLIC "-//W3C//DTD SVG 20010904//EN"
 "http://www.w3.org/TR/2001/REC-SVG-20010904/DTD/svg10.dtd">
<svg version="1.0" xmlns="http://www.w3.org/2000/svg"
 width="300.000000pt" height="300.000000pt" viewBox="0 0 300.000000 300.000000"
 preserveAspectRatio="xMidYMid meet">
<metadata>
Created by potrace 1.11, written by Peter Selinger 2001-2013
</metadata>
<g transform="translate(0.000000,300.000000) scale(0.100000,-0.100000)"
fill="#000000" stroke="none">
<path d="M1479 2442 c-28 -19 -629 -450 -741 -531 -42 -31 -149 -108 -238
-171 -88 -63 -192 -137 -229 -165 -38 -27 -79 -57 -91 -65 -12 -8 -57 -41
-101 -73 l-79 -57 1 -425 c0 -234 3 -424 7 -422 12 6 94 43 303 137 112 51
229 103 259 117 30 14 145 66 255 115 110 50 227 103 260 118 33 15 103 46
155 70 52 23 132 60 177 81 l83 38 72 -34 c80 -36 69 -31 443 -200 143 -64
285 -128 315 -142 30 -14 93 -42 140 -63 47 -21 117 -52 155 -70 39 -18 108
-49 155 -70 103 -46 202 -91 212 -97 4 -2 6 189 5 423 l-2 427 -95 69 c-52 38
-104 76 -115 84 -82 60 -391 282 -410 294 -18 12 -375 269 -480 345 -11 9
-104 76 -206 149 -183 131 -187 134 -210 118z"/>
</g>
</svg>
